<svg width="85" height="60" viewBox="0 0 85 60" fill="none" xmlns="http://www.w3.org/2000/svg">
<rect x="12.9963" width="76" height="36" rx="18" transform="rotate(20 12.9963 0)" fill="#FF991F" fill-opacity="0.05"/>
<path d="M24.6152 23.9183L22.232 23.0509L22.647 21.8707L24.7283 22.6282C25.0794 22.756 25.3958 22.8129 25.6773 22.799C25.9646 22.7824 26.2084 22.6989 26.4085 22.5487C26.6103 22.3942 26.7626 22.1756 26.8655 21.8929C26.9792 21.5803 27.012 21.3037 26.9638 21.0631C26.9156 20.8224 26.7837 20.6119 26.568 20.4316C26.3567 20.2528 26.0604 20.0941 25.6793 19.9554L24.1183 19.3872L21.1818 27.4554L19.5694 26.8685L22.9736 17.5156L26.1469 18.6706C26.6608 18.8577 27.1011 19.0737 27.4678 19.3187C27.8388 19.5653 28.1274 19.8449 28.3336 20.1576C28.5458 20.4676 28.6669 20.8076 28.6972 21.1775C28.7317 21.5489 28.6695 21.953 28.5105 22.3899C28.3703 22.7753 28.1496 23.0951 27.8485 23.3492C27.5491 23.5991 27.1828 23.7592 26.7498 23.8296C26.3168 23.8999 25.8257 23.8569 25.2764 23.7006L24.6152 23.9183ZM23.0061 28.1194L20.1861 27.093L21.3772 26.0788L23.4713 26.841C23.8354 26.9735 24.1612 27.0242 24.449 26.9932C24.7383 26.9578 24.9818 26.8549 25.1797 26.6844C25.3834 26.5112 25.5382 26.279 25.6442 25.9878C25.7549 25.6838 25.7972 25.4009 25.7712 25.1393C25.7467 24.8733 25.6407 24.6383 25.4531 24.4342C25.267 24.2259 24.9877 24.0539 24.6152 23.9183L22.8037 23.259L23.2444 22.0881L25.6019 22.9462L25.8067 23.5227C26.3144 23.7268 26.6949 23.9939 26.9483 24.3237C27.2059 24.6551 27.3553 25.0175 27.3965 25.4107C27.4376 25.804 27.3881 26.1933 27.2478 26.5788C27.0311 27.174 26.7189 27.6254 26.3112 27.9329C25.9077 28.2419 25.4258 28.4133 24.8655 28.447C24.3068 28.4764 23.687 28.3672 23.0061 28.1194ZM28.6688 26.3321L28.7226 26.1844C28.905 25.6833 29.1469 25.2452 29.4483 24.8699C29.7514 24.4904 30.0976 24.1921 30.487 23.9749C30.8823 23.7551 31.311 23.6298 31.7732 23.5992C32.2412 23.5658 32.7279 23.6411 33.2332 23.825C33.7428 24.0105 34.164 24.2657 34.4968 24.5905C34.8355 24.9126 35.0855 25.2849 35.247 25.7074C35.41 26.1256 35.4856 26.5775 35.4738 27.063C35.4635 27.5442 35.3672 28.0354 35.1848 28.5364L35.131 28.6842C34.9487 29.1852 34.7067 29.6234 34.4053 29.9986C34.1038 30.3739 33.7554 30.6714 33.3602 30.8913C32.9665 31.1069 32.5378 31.2321 32.074 31.267C31.6118 31.2977 31.1281 31.221 30.6228 31.0371C30.1132 30.8516 29.689 30.5978 29.3504 30.2757C29.0176 29.9509 28.7697 29.5794 28.6067 29.1612C28.4452 28.7387 28.3696 28.2868 28.3799 27.8056C28.3901 27.3243 28.4864 26.8332 28.6688 26.3321ZM30.2707 26.7478L30.2169 26.8956C30.1031 27.2082 30.0277 27.5154 29.9906 27.8171C29.9535 28.1189 29.9653 28.3996 30.026 28.6593C30.0867 28.919 30.2022 29.1478 30.3727 29.3457C30.5432 29.5435 30.7762 29.6962 31.0717 29.8037C31.3586 29.9082 31.6288 29.9386 31.8823 29.8951C32.14 29.8531 32.3756 29.7522 32.5891 29.5922C32.8025 29.4322 32.9919 29.2248 33.1575 28.9698C33.3273 28.7164 33.4691 28.4333 33.5829 28.1207L33.6367 27.973C33.7489 27.6646 33.8207 27.361 33.8519 27.0619C33.889 26.7602 33.8758 26.4766 33.8124 26.211C33.7533 25.947 33.6385 25.7161 33.4681 25.5182C33.3034 25.3177 33.0755 25.1644 32.7843 25.0584C32.4931 24.9524 32.2178 24.9225 31.9585 24.9688C31.705 25.0123 31.4708 25.1162 31.2558 25.2805C31.0408 25.4447 30.8506 25.6543 30.685 25.9093C30.521 26.16 30.3829 26.4395 30.2707 26.7478ZM36.1331 29.0489L36.1869 28.9012C36.3693 28.4001 36.6112 27.962 36.9127 27.5867C37.2157 27.2072 37.5619 26.9089 37.9513 26.6917C38.3466 26.4718 38.7753 26.3466 39.2375 26.316C39.7055 26.2826 40.1922 26.3579 40.6975 26.5418C41.2071 26.7273 41.6283 26.9825 41.9611 27.3073C42.2998 27.6294 42.5498 28.0017 42.7113 28.4242C42.8743 28.8424 42.9499 29.2943 42.9381 29.7798C42.9278 30.261 42.8315 30.7522 42.6491 31.2532L42.5953 31.401C42.413 31.902 42.1711 32.3402 41.8696 32.7154C41.5681 33.0907 41.2198 33.3882 40.8245 33.6081C40.4308 33.8237 40.0021 33.9489 39.5383 33.9838C39.0762 34.0145 38.5924 33.9378 38.0871 33.7539C37.5775 33.5684 37.1533 33.3146 36.8147 32.9925C36.4819 32.6677 36.234 32.2962 36.071 31.878C35.9095 31.4555 35.8339 31.0036 35.8442 30.5223C35.8544 30.0411 35.9508 29.55 36.1331 29.0489ZM37.735 29.4646L37.6812 29.6124C37.5675 29.925 37.492 30.2322 37.4549 30.5339C37.4179 30.8357 37.4297 31.1164 37.4903 31.3761C37.551 31.6358 37.6666 31.8646 37.837 32.0624C38.0075 32.2603 38.2405 32.413 38.536 32.5205C38.8229 32.625 39.0931 32.6554 39.3466 32.6119C39.6044 32.5699 39.84 32.4689 40.0534 32.309C40.2668 32.149 40.4563 31.9415 40.6218 31.6866C40.7916 31.4331 40.9335 31.1501 41.0472 30.8375L41.101 30.6898C41.2132 30.3814 41.285 30.0778 41.3162 29.7787C41.3533 29.477 41.3401 29.1933 41.2767 28.9278C41.2176 28.6638 41.1029 28.4329 40.9324 28.235C40.7677 28.0345 40.5398 27.8812 40.2486 27.7752C39.9574 27.6692 39.6821 27.6393 39.4228 27.6856C39.1693 27.7291 38.9351 27.833 38.7201 27.9973C38.5051 28.1615 38.3149 28.3711 38.1493 28.6261C37.9853 28.8768 37.8472 29.1563 37.735 29.4646ZM47.8083 25.9727L44.2171 35.8395L42.6625 35.2737L46.2538 25.4069L47.8083 25.9727ZM51.0635 30.4603L46.8175 32.7122L44.543 33.8048L44.6152 32.3471L46.4313 31.2549L49.1942 29.7799L51.0635 30.4603ZM46.9985 36.8519L45.9315 32.768L47.3031 32.0378L48.7907 37.5042L46.9985 36.8519ZM52.4055 38.9653C51.8916 38.7783 51.4573 38.5257 51.1027 38.2075C50.7539 37.8865 50.4893 37.5211 50.3087 37.111C50.1325 36.7025 50.0421 36.2647 50.0376 35.7974C50.033 35.3302 50.1173 34.8589 50.2903 34.3836L50.3838 34.1266C50.5818 33.5827 50.8402 33.1191 51.1592 32.7357C51.4782 32.3523 51.8359 32.0557 52.2324 31.8459C52.6303 31.6319 53.0524 31.5115 53.4986 31.4848C53.9449 31.4581 54.3928 31.5265 54.8424 31.6902C55.3392 31.871 55.7435 32.1127 56.0553 32.4153C56.3671 32.7179 56.5897 33.0657 56.7231 33.4586C56.8624 33.8488 56.9164 34.2734 56.8851 34.7324C56.8581 35.193 56.7534 35.6738 56.571 36.1749L56.3302 36.8365L50.96 34.8819L51.3645 33.7706L55.2059 35.1688L55.2503 35.0467C55.343 34.7653 55.3824 34.4838 55.3685 34.2023C55.3589 33.9223 55.2785 33.67 55.1275 33.4453C54.9765 33.2206 54.7297 33.0459 54.3871 32.9212C54.1302 32.8277 53.8808 32.7999 53.639 32.838C53.403 32.8734 53.1813 32.9697 52.9737 33.1269C52.7661 33.2842 52.5729 33.4951 52.3942 33.7599C52.2212 34.0218 52.0693 34.3327 51.9383 34.6924L51.8448 34.9494C51.7341 35.2534 51.672 35.5509 51.6582 35.8417C51.6504 36.1298 51.6927 36.3999 51.7853 36.6518C51.8779 36.9037 52.0196 37.1275 52.2103 37.323C52.4026 37.5142 52.6465 37.6636 52.942 37.7712C53.3145 37.9068 53.6737 37.9526 54.0195 37.9087C54.3652 37.8648 54.695 37.7448 55.0089 37.5487L55.5372 38.6357C55.3078 38.7996 55.0365 38.9385 54.7235 39.0525C54.412 39.1622 54.0602 39.216 53.6681 39.2139C53.2803 39.2134 52.8594 39.1306 52.4055 38.9653ZM61.2047 40.393L64.2722 31.9651L65.8267 32.5309L62.2355 42.3977L60.8287 41.8857L61.2047 40.393ZM57.3955 36.7878L57.4446 36.6529C57.6363 36.1262 57.873 35.6691 58.1546 35.2818C58.4378 34.8902 58.754 34.5809 59.1034 34.354C59.4542 34.1229 59.8292 33.9853 60.2283 33.9415C60.629 33.8933 61.0413 33.9464 61.4653 34.1007C61.8849 34.2534 62.2236 34.4688 62.4813 34.7469C62.739 35.025 62.9238 35.3566 63.0358 35.7417C63.1494 36.1225 63.1962 36.5469 63.1762 37.0149C63.1578 37.4786 63.0836 37.9754 62.9538 38.5053L62.7972 38.9357C62.5607 39.4122 62.3013 39.8319 62.0189 40.1947C61.7365 40.5574 61.4294 40.8482 61.0976 41.0669C60.7658 41.2856 60.4097 41.4179 60.0293 41.4638C59.6532 41.5111 59.2531 41.4577 58.8291 41.3034C58.4095 41.1506 58.0624 40.9249 57.788 40.6262C57.5179 40.329 57.3227 39.9791 57.2025 39.5765C57.0823 39.1739 57.0381 38.7358 57.0698 38.2624C57.103 37.7846 57.2116 37.2931 57.3955 36.7878ZM58.9927 37.2164L58.9436 37.3513C58.8283 37.6682 58.7486 37.9738 58.7045 38.2681C58.6647 38.564 58.6687 38.8395 58.7165 39.0945C58.7659 39.3453 58.8672 39.5665 59.0206 39.7581C59.1798 39.947 59.3985 40.0921 59.6769 40.1934C60.0281 40.3212 60.3452 40.3493 60.6283 40.2778C60.9114 40.2062 61.1647 40.0632 61.3882 39.8487C61.6176 39.6315 61.8151 39.3688 61.9807 39.0604L62.4039 37.8978C62.4701 37.6357 62.5023 37.3807 62.5004 37.1327C62.5029 36.8862 62.4673 36.6575 62.3938 36.4464C62.3218 36.2311 62.2037 36.0426 62.0394 35.881C61.881 35.7166 61.669 35.5861 61.4035 35.4895C61.1209 35.3866 60.8592 35.3593 60.6186 35.4075C60.378 35.4557 60.1552 35.5614 59.9504 35.7244C59.7498 35.8891 59.5689 36.0997 59.4076 36.3562C59.2464 36.6127 59.1081 36.8995 58.9927 37.2164Z" fill="#FF991F"/>
</svg>
