<svg width="115" height="72" viewBox="0 0 115 72" fill="none" xmlns="http://www.w3.org/2000/svg">
<rect x="12.3127" width="109" height="36" rx="18" transform="rotate(20 12.3127 0)" fill="#F6F7FE"/>
<path d="M21.7644 22.9914L20.6409 22.2405L22.8598 17.7231L27.9024 19.5585L27.4255 20.8689L23.6676 19.5011L22.576 21.7009C22.7528 21.6682 22.9844 21.658 23.271 21.6701C23.5591 21.678 23.868 21.7419 24.1978 21.862C24.6389 22.0225 25.0064 22.2387 25.3003 22.5106C25.6 22.7797 25.822 23.0957 25.9664 23.4586C26.1123 23.8173 26.1785 24.2148 26.1652 24.6513C26.1534 25.0835 26.0594 25.5415 25.8833 26.0255C25.7258 26.458 25.5143 26.8393 25.2487 27.1694C24.9873 27.501 24.6781 27.7643 24.321 27.9593C23.9639 28.1543 23.563 28.263 23.1184 28.2854C22.6796 28.3052 22.1989 28.2199 21.6765 28.0298C21.2868 27.8879 20.9323 27.6959 20.6131 27.4536C20.2997 27.2086 20.0423 26.9233 19.8407 26.5978C19.6406 26.2679 19.515 25.907 19.4637 25.5149C19.414 25.1185 19.455 24.6994 19.5867 24.2575L21.1027 24.8093C21.0306 25.1273 21.0198 25.4168 21.0703 25.6777C21.1267 25.9359 21.2438 26.1604 21.4217 26.3512C21.5996 26.542 21.832 26.6897 22.1189 26.7941C22.3802 26.8892 22.6214 26.926 22.8425 26.9047C23.0652 26.8791 23.2699 26.8032 23.4564 26.6771C23.6488 26.5483 23.8178 26.377 23.9635 26.1633C24.1135 25.9511 24.2407 25.7016 24.3451 25.4147C24.4448 25.1406 24.4996 24.8768 24.5094 24.6234C24.5235 24.3715 24.4903 24.1363 24.4098 23.9178C24.3335 23.7009 24.2068 23.5093 24.0297 23.343C23.8542 23.1724 23.6294 23.0373 23.3553 22.9375C22.987 22.8035 22.6849 22.7541 22.4489 22.7895C22.2172 22.8264 21.9891 22.8937 21.7644 22.9914ZM33.6899 28.4813L33.241 29.7146L26.4961 27.2597L26.7838 26.3096L33.1184 21.4569L34.3582 21.9082L32.1787 23.7192L28.506 26.5945L33.6899 28.4813ZM34.7115 22.0368L31.3073 31.3896L29.7592 30.8262L33.1634 21.4733L34.7115 22.0368ZM42.1566 24.7465L38.7524 34.0994L37.14 33.5126L40.5442 24.1597L42.1566 24.7465ZM44.1273 29.865L42.1377 35.3316L40.5896 34.7681L43.1193 27.8177L44.5775 28.3484L44.1273 29.865ZM43.2198 31.4989L42.7211 31.3101C42.9047 30.8192 43.1376 30.3923 43.42 30.0295C43.7067 29.6683 44.0237 29.3835 44.3711 29.1753C44.7227 28.9687 45.0965 28.8477 45.4925 28.8124C45.8901 28.7728 46.2965 28.8286 46.7119 28.9798C47.046 29.1014 47.3307 29.2584 47.5662 29.4508C47.8076 29.6405 47.9872 29.8732 48.1051 30.1489C48.2273 30.4261 48.2797 30.7483 48.2625 31.1155C48.2468 31.4784 48.1525 31.8975 47.9795 32.3728L46.3452 36.863L44.7907 36.2972L46.4273 31.8006C46.5488 31.4666 46.5955 31.1853 46.5671 30.9567C46.5446 30.7254 46.4561 30.5356 46.3015 30.3872C46.1528 30.2361 45.9436 30.1114 45.6738 30.0132C45.4083 29.9166 45.1504 29.8858 44.9 29.9207C44.6496 29.9557 44.4166 30.043 44.2008 30.1827C43.9894 30.324 43.7991 30.507 43.6301 30.7316C43.461 30.9562 43.3243 31.2119 43.2198 31.4989ZM52.5096 36.9752C52.5657 36.821 52.5779 36.6678 52.546 36.5155C52.5156 36.359 52.41 36.1896 52.229 36.0073C52.0523 35.8266 51.7697 35.6171 51.3812 35.3787C51.0425 35.1633 50.7392 34.9438 50.4714 34.7202C50.2095 34.4939 49.9989 34.2596 49.8397 34.0174C49.6805 33.7752 49.5815 33.5209 49.5427 33.2546C49.5038 32.9883 49.5374 32.7095 49.6434 32.4183C49.7462 32.1356 49.9057 31.8906 50.1219 31.6831C50.3381 31.4757 50.5968 31.3177 50.8982 31.2091C51.1996 31.1006 51.5355 31.0506 51.9057 31.0593C52.2803 31.0696 52.6731 31.1495 53.0842 31.2991C53.6666 31.5111 54.1297 31.7912 54.4734 32.1394C54.8229 32.4848 55.0483 32.8651 55.1494 33.2802C55.252 33.691 55.2278 34.1041 55.0766 34.5195L53.5285 33.956C53.5955 33.7719 53.6107 33.5834 53.5742 33.3907C53.5435 33.1952 53.454 33.0147 53.3057 32.8492C53.159 32.6794 52.9464 32.5438 52.6681 32.4425C52.4026 32.3459 52.1664 32.3084 51.9597 32.3302C51.7588 32.3492 51.5913 32.4095 51.4573 32.5111C51.3277 32.6142 51.234 32.745 51.1763 32.9035C51.1342 33.0191 51.1174 33.1318 51.126 33.2416C51.1404 33.3487 51.187 33.4603 51.2661 33.5763C51.3466 33.6881 51.4673 33.8096 51.628 33.9409C51.7931 34.0737 52.006 34.2215 52.2668 34.3843C52.7573 34.6889 53.1612 34.9984 53.4784 35.3127C53.8015 35.6243 54.016 35.9545 54.1218 36.3034C54.2291 36.648 54.2072 37.028 54.056 37.4434C53.9438 37.7518 53.7745 38.0103 53.5483 38.2189C53.3278 38.4248 53.0591 38.5768 52.7422 38.6748C52.4267 38.7685 52.0769 38.8037 51.6926 38.7802C51.3126 38.7583 50.9085 38.6694 50.4802 38.5135C49.8507 38.2844 49.3581 37.979 49.0023 37.5973C48.6481 37.2113 48.4214 36.8015 48.3223 36.3677C48.229 35.9312 48.2517 35.5224 48.3904 35.1413L49.8871 35.686C49.7998 35.9792 49.7956 36.2371 49.8746 36.4599C49.9594 36.6799 50.0949 36.8674 50.2809 37.0224C50.4728 37.1747 50.6844 37.2929 50.9157 37.3771C51.194 37.4784 51.4407 37.527 51.6556 37.5227C51.8721 37.5142 52.053 37.4637 52.1982 37.3711C52.345 37.2741 52.4488 37.1422 52.5096 36.9752ZM60.4119 34.1116L60.0004 35.2422L56.0819 33.816L56.4934 32.6855L60.4119 34.1116ZM58.2436 31.3947L59.7917 31.9581L57.3414 38.6902C57.2635 38.9043 57.2334 39.0801 57.2513 39.2175C57.275 39.3522 57.3355 39.4591 57.4329 39.5382C57.5302 39.6173 57.6538 39.6841 57.8037 39.7386C57.9107 39.7776 58.0158 39.8086 58.119 39.8316C58.2222 39.8546 58.3061 39.8706 58.3707 39.8795L57.9469 41.0638C57.8044 41.0556 57.6421 41.0353 57.4599 41.003C57.2819 40.9721 57.0838 40.917 56.8654 40.8375C56.5099 40.7081 56.2178 40.5315 55.9889 40.3075C55.7616 40.0793 55.6231 39.7937 55.5733 39.4506C55.5236 39.1076 55.5852 38.6984 55.7582 38.223L58.2436 31.3947ZM62.6796 36.4356L60.6314 42.0627L59.0833 41.4993L61.6131 34.5489L63.0905 35.0866L62.6796 36.4356ZM65.3038 35.8412L64.7672 37.2755C64.6793 37.2241 64.5811 37.1738 64.4729 37.1247C64.369 37.0772 64.2635 37.0339 64.1564 36.995C63.8909 36.8983 63.6435 36.8519 63.4141 36.8557C63.1864 36.8553 62.9783 36.9008 62.7898 36.9922C62.6071 37.0809 62.4436 37.2105 62.2991 37.381C62.1546 37.5515 62.0315 37.7565 61.9298 37.9959L61.5671 37.893C61.7261 37.4562 61.9162 37.0671 62.1375 36.7257C62.3587 36.3843 62.6065 36.1035 62.8806 35.8832C63.1591 35.6644 63.4578 35.5234 63.7767 35.46C64.0998 35.3982 64.4349 35.4304 64.7818 35.5567C64.876 35.591 64.9735 35.6362 65.0743 35.6922C65.1794 35.7499 65.2559 35.7996 65.3038 35.8412ZM68.5057 43.0737L70.4392 37.7613L71.9938 38.3271L69.464 45.2775L67.9994 44.7445L68.5057 43.0737ZM69.2501 41.7079L69.7751 41.8844C69.6052 42.3512 69.3972 42.7629 69.151 43.1194C68.9064 43.4717 68.624 43.7545 68.3039 43.9678C67.9854 44.1768 67.6295 44.3019 67.2362 44.343C66.8445 44.3799 66.4152 44.3134 65.9485 44.1435C65.6101 44.0203 65.3176 43.8581 65.0708 43.6567C64.824 43.4553 64.6352 43.2145 64.5045 42.9341C64.378 42.6553 64.3192 42.3307 64.3278 41.9605C64.3365 41.5902 64.4242 41.1759 64.591 40.7177L66.2253 36.2276L67.7734 36.791L66.1344 41.294C66.0425 41.5467 65.9953 41.7696 65.9929 41.9627C65.9921 42.1515 66.0243 42.3161 66.0897 42.4562C66.1551 42.5964 66.2485 42.7129 66.3699 42.8056C66.4914 42.8983 66.6292 42.9727 66.7834 43.0288C67.2245 43.1893 67.6025 43.2299 67.9175 43.1506C68.2384 43.0686 68.5061 42.8993 68.7207 42.6427C68.9396 42.3878 69.1161 42.0761 69.2501 41.7079ZM74.2921 45.7836C74.5447 45.8755 74.7896 45.9089 75.0267 45.8836C75.2697 45.8557 75.486 45.7744 75.6757 45.6397C75.8696 45.5066 76.0159 45.3246 76.1145 45.0938L77.5726 45.6245C77.4004 46.071 77.1188 46.4317 76.7278 46.7065C76.3368 46.9812 75.8896 47.1507 75.3861 47.2148C74.8842 47.2746 74.3763 47.211 73.8624 47.0239C73.3314 46.8306 72.9016 46.5724 72.5731 46.2491C72.2462 45.9216 72.0105 45.5497 71.8662 45.1334C71.7219 44.7171 71.6597 44.275 71.6797 43.807C71.704 43.3406 71.8034 42.8675 71.978 42.3879L72.0598 42.1631C72.2344 41.6834 72.4623 41.2572 72.7435 40.8842C73.0305 40.5086 73.3631 40.2077 73.7413 39.9816C74.1194 39.7555 74.5382 39.6242 74.9977 39.5878C75.4587 39.547 75.9525 39.6225 76.4793 39.8142C77.036 40.0168 77.4837 40.3059 77.8223 40.6813C78.1625 41.0525 78.3808 41.4787 78.4772 41.96C78.5795 42.4385 78.5406 42.9384 78.3605 43.4597L76.9024 42.929C76.983 42.6674 77.003 42.4127 76.9622 42.1651C76.9272 41.9147 76.8295 41.69 76.6692 41.491C76.5131 41.2936 76.2937 41.1434 76.0111 41.0405C75.6985 40.9268 75.416 40.8967 75.1637 40.9504C74.9129 40.9997 74.69 41.1126 74.4949 41.2889C74.3013 41.4609 74.1297 41.6725 73.9802 41.9236C73.8364 42.172 73.7123 42.4396 73.6079 42.7265L73.5261 42.9514C73.4216 43.2383 73.3439 43.5252 73.2928 43.8122C73.2417 44.0991 73.235 44.3707 73.2727 44.6269C73.3162 44.8804 73.4174 45.1087 73.5762 45.312C73.7365 45.511 73.9752 45.6682 74.2921 45.7836ZM83.6399 42.566L83.2284 43.6965L79.3099 42.2703L79.7214 41.1398L83.6399 42.566ZM81.4716 39.849L83.0197 40.4124L80.5694 47.1445C80.4915 47.3586 80.4615 47.5344 80.4793 47.6718C80.5031 47.8065 80.5636 47.9134 80.6609 47.9925C80.7582 48.0716 80.8818 48.1384 81.0317 48.1929C81.1387 48.2319 81.2439 48.2629 81.347 48.2859C81.4502 48.3089 81.5341 48.3249 81.5987 48.3339L81.175 49.5182C81.0325 49.5099 80.8701 49.4896 80.6879 49.4573C80.51 49.4265 80.3118 49.3713 80.0934 49.2918C79.738 49.1624 79.4458 48.9858 79.2169 48.7618C78.9896 48.5336 78.8511 48.248 78.8013 47.9049C78.7516 47.5619 78.8132 47.1527 78.9863 46.6774L81.4716 39.849ZM83.0921 46.3895L83.1459 46.2417C83.3282 45.7407 83.5702 45.3025 83.8716 44.9273C84.1747 44.5477 84.5209 44.2494 84.9103 44.0323C85.3056 43.8124 85.7343 43.6871 86.1965 43.6565C86.6645 43.6232 87.1512 43.6985 87.6565 43.8824C88.1661 44.0679 88.5873 44.323 88.9201 44.6478C89.2587 44.9699 89.5088 45.3422 89.6703 45.7647C89.8333 46.183 89.9089 46.6348 89.897 47.1203C89.8868 47.6016 89.7905 48.0927 89.6081 48.5938L89.5543 48.7415C89.372 49.2426 89.13 49.6807 88.8286 50.056C88.5271 50.4312 88.1787 50.7288 87.7835 50.9486C87.3898 51.1642 86.961 51.2895 86.4973 51.3244C86.0351 51.355 85.5514 51.2784 85.0461 51.0944C84.5364 50.9089 84.1123 50.6552 83.7737 50.3331C83.4409 50.0082 83.193 49.6367 83.0299 49.2185C82.8685 48.796 82.7929 48.3441 82.8032 47.8629C82.8134 47.3817 82.9097 46.8905 83.0921 46.3895ZM84.694 46.8052L84.6402 46.9529C84.5264 47.2655 84.451 47.5727 84.4139 47.8745C84.3768 48.1762 84.3886 48.4569 84.4493 48.7167C84.51 48.9764 84.6255 49.2052 84.796 49.403C84.9665 49.6008 85.1995 49.7535 85.495 49.8611C85.7819 49.9655 86.0521 49.996 86.3056 49.9524C86.5633 49.9105 86.7989 49.8095 87.0123 49.6495C87.2258 49.4896 87.4152 49.2821 87.5808 49.0271C87.7506 48.7737 87.8924 48.4907 88.0062 48.1781L88.06 48.0303C88.1722 47.722 88.2439 47.4183 88.2752 47.1193C88.3123 46.8175 88.2991 46.5339 88.2357 46.2683C88.1766 46.0043 88.0618 45.7734 87.8913 45.5756C87.7267 45.375 87.4988 45.2217 87.2076 45.1157C86.9164 45.0097 86.6411 44.9799 86.3818 45.0261C86.1283 45.0697 85.8941 45.1736 85.6791 45.3378C85.4641 45.502 85.2739 45.7117 85.1083 45.9666C84.9443 46.2173 84.8062 46.4968 84.694 46.8052ZM93.2177 47.5506L91.1696 53.1777L89.6215 52.6143L92.1513 45.6638L93.6287 46.2016L93.2177 47.5506ZM95.842 46.9562L95.3054 48.3905C95.2174 48.339 95.1193 48.2888 95.0111 48.2397C94.9072 48.1922 94.8017 48.1489 94.6946 48.1099C94.4291 48.0133 94.1817 47.9669 93.9523 47.9707C93.7246 47.9703 93.5164 48.0158 93.328 48.1072C93.1453 48.1959 92.9818 48.3255 92.8372 48.496C92.6927 48.6665 92.5697 48.8715 92.468 49.1109L92.1053 49.008C92.2643 48.5712 92.4544 48.1821 92.6757 47.8407C92.8969 47.4993 93.1446 47.2184 93.4188 46.9982C93.6973 46.7794 93.9959 46.6384 94.3148 46.575C94.638 46.5132 94.9731 46.5454 95.3199 46.6717C95.4141 46.7059 95.5117 46.7511 95.6125 46.8072C95.7176 46.8649 95.7941 46.9146 95.842 46.9562Z" fill="#5A69F2"/>
</svg>
